<svg width="100%" height="220" viewBox="0 0 1000 150" xmlns="http://www.w3.org/2000/svg">
  <!-- Mario - Scale x8 -->
  <g transform="translate(30, 15) scale(8)">
    <rect x="3" y="1" width="6" height="1" fill="#FF0000"/><rect x="2" y="2" width="10" height="1" fill="#FF0000"/><rect x="2" y="3" width="3" height="1" fill="#996633"/><rect x="5" y="3" width="2" height="1" fill="#FFCC99"/><rect x="7" y="3" width="1" height="1" fill="#000000"/><rect x="8" y="3" width="1" height="1" fill="#FFCC99"/><rect x="2" y="4" width="1" height="1" fill="#996633"/><rect x="3" y="4" width="1" height="1" fill="#FFCC99"/><rect x="4" y="4" width="1" height="1" fill="#996633"/><rect x="5" y="4" width="3" height="1" fill="#FFCC99"/><rect x="8" y="4" width="1" height="1" fill="#000000"/><rect x="9" y="4" width="3" height="1" fill="#FFCC99"/><rect x="2" y="5" width="1" height="1" fill="#996633"/><rect x="3" y="5" width="1" height="1" fill="#996633"/><rect x="4" y="5" width="2" height="1" fill="#FFCC99"/><rect x="6" y="5" width="4" height="1" fill="#FFCC99"/><rect x="10" y="5" width="2" height="1" fill="#FFCC99"/><rect x="4" y="6" width="6" height="1" fill="#FFCC99"/><rect x="3" y="7" width="2" height="1" fill="#0000FF"/><rect x="5" y="7" width="1" height="1" fill="#FF0000"/><rect x="6" y="7" width="4" height="1" fill="#0000FF"/><rect x="2" y="8" width="3" height="1" fill="#0000FF"/><rect x="5" y="8" width="1" height="1" fill="#FF0000"/><rect x="6" y="8" width="2" height="1" fill="#0000FF"/><rect x="8" y="8" width="1" height="1" fill="#FFFF00"/><rect x="9" y="8" width="2" height="1" fill="#0000FF"/><rect x="1" y="9" width="4" height="1" fill="#0000FF"/><rect x="5" y="9" width="4" height="1" fill="#FF0000"/><rect x="9" y="9" width="4" height="1" fill="#0000FF"/><rect x="1" y="10" width="12" height="1" fill="#FF0000"/><rect x="3" y="11" width="8" height="1" fill="#FF0000"/><rect x="2" y="12" width="3" height="1" fill="#996633"/><rect x="9" y="12" width="3" height="1" fill="#996633"/><rect x="1" y="13" width="4" height="1" fill="#996633"/><rect x="9" y="13" width="4" height="1" fill="#996633"/>
  </g>
  
  <!-- Luigi - Scale x8 -->
  <g transform="translate(230, 15) scale(8)">
    <rect x="3" y="1" width="6" height="1" fill="#2ECC71"/><rect x="2" y="2" width="10" height="1" fill="#2ECC71"/><rect x="2" y="3" width="3" height="1" fill="#996633"/><rect x="5" y="3" width="2" height="1" fill="#FFCC99"/><rect x="7" y="3" width="1" height="1" fill="#000000"/><rect x="8" y="3" width="1" height="1" fill="#FFCC99"/><rect x="2" y="4" width="1" height="1" fill="#996633"/><rect x="3" y="4" width="1" height="1" fill="#FFCC99"/><rect x="4" y="4" width="1" height="1" fill="#996633"/><rect x="5" y="4" width="3" height="1" fill="#FFCC99"/><rect x="8" y="4" width="1" height="1" fill="#000000"/><rect x="9" y="4" width="3" height="1" fill="#FFCC99"/><rect x="2" y="5" width="1" height="1" fill="#996633"/><rect x="3" y="5" width="1" height="1" fill="#996633"/><rect x="4" y="5" width="2" height="1" fill="#FFCC99"/><rect x="6" y="5" width="4" height="1" fill="#FFCC99"/><rect x="10" y="5" width="2" height="1" fill="#FFCC99"/><rect x="4" y="6" width="6" height="1" fill="#FFCC99"/><rect x="3" y="7" width="2" height="1" fill="#0000FF"/><rect x="5" y="7" width="1" height="1" fill="#2ECC71"/><rect x="6" y="7" width="4" height="1" fill="#0000FF"/><rect x="2" y="8" width="3" height="1" fill="#0000FF"/><rect x="5" y="8" width="1" height="1" fill="#2ECC71"/><rect x="6" y="8" width="2" height="1" fill="#0000FF"/><rect x="8" y="8" width="1" height="1" fill="#FFFF00"/><rect x="9" y="8" width="2" height="1" fill="#0000FF"/><rect x="1" y="9" width="4" height="1" fill="#0000FF"/><rect x="5" y="9" width="4" height="1" fill="#2ECC71"/><rect x="9" y="9" width="4" height="1" fill="#0000FF"/><rect x="1" y="10" width="12" height="1" fill="#2ECC71"/><rect x="3" y="11" width="8" height="1" fill="#2ECC71"/><rect x="2" y="12" width="3" height="1" fill="#996633"/><rect x="9" y="12" width="3" height="1" fill="#996633"/><rect x="1" y="13" width="4" height="1" fill="#996633"/><rect x="9" y="13" width="4" height="1" fill="#996633"/>
  </g>
  
  <!-- Peach - Scale x8 -->
  <g transform="translate(430, 15) scale(8)">
    <rect x="6" y="1" width="4" height="1" fill="#F1C40F"/><rect x="4" y="2" width="8" height="2" fill="#F1C40F"/><rect x="5" y="4" width="6" height="4" fill="#FFCC99"/><rect x="6" y="5" width="1" height="1" fill="#000000"/><rect x="9" y="5" width="1" height="1" fill="#000000"/><rect x="4" y="8" width="8" height="6" fill="#FFB6C1"/><rect x="3" y="10" width="10" height="5" fill="#FFB6C1"/>
  </g>
  
  <!-- Mario Santa - Scale x8 -->
  <g transform="translate(630, 15) scale(8)">
    <rect x="4" y="1" width="8" height="1" fill="#FF0000"/><rect x="2" y="2" width="12" height="4" fill="#FF0000"/><rect x="4" y="2" width="2" height="2" fill="white"/><rect x="10" y="2" width="2" height="2" fill="white"/><rect x="5" y="6" width="6" height="4" fill="#FFCC99"/><rect x="6" y="7" width="1" height="1" fill="#000000"/><rect x="9" y="7" width="1" height="1" fill="#000000"/><rect x="4" y="10" width="8" height="3" fill="#FFFFFF"/><rect x="5" y="13" width="2" height="2" fill="#996633"/><rect x="9" y="13" width="2" height="2" fill="#996633"/>
  </g>
  
  <!-- Yoshi - Scale x8 -->
  <g transform="translate(830, 15) scale(8)">
    <rect x="7" y="1" width="5" height="4" fill="#2ECC71"/><rect x="6" y="2" width="2" height="2" fill="white"/><rect x="7" y="2" width="1" height="1" fill="black"/><rect x="4" y="5" width="9" height="4" fill="#2ECC71"/><rect x="5" y="9" width="7" height="3" fill="white"/><rect x="11" y="4" width="2" height="2" fill="#FF4747"/><rect x="6" y="12" width="2" height="3" fill="#FF4747"/><rect x="10" y="12" width="2" height="3" fill="#FF4747"/>
  </g>
</svg>